<svg width="135" height="165" viewBox="0 0 135 165" fill="none" xmlns="http://www.w3.org/2000/svg">
<path d="M104.125 54.7445C105.072 55.9127 105.706 57.2628 106.392 58.5778C107.894 61.4536 109.139 64.4475 110.472 67.403C112.531 71.9641 114.973 76.3336 117.32 80.7479C120.926 87.5272 124.243 94.4342 126.737 101.695C128.483 106.77 129.982 111.916 131.149 117.147C132.007 120.99 133.054 124.791 133.737 128.672C134.316 131.957 134.491 135.228 133.896 138.522C133.805 139.03 133.809 139.502 134.072 139.984C134.306 140.409 134.436 140.884 133.883 141.226C133.724 141.325 133.685 141.481 133.646 141.65C133.223 143.399 132.134 144.724 130.811 145.889C127.907 148.445 124.756 150.641 121.15 152.151C116.959 153.907 112.775 155.691 108.492 157.226C106.85 157.813 105.179 158.397 103.443 158.579C100.549 158.883 97.9118 160.083 95.0993 160.667C91.0641 161.503 87.0095 162.141 82.8898 162.393C79.2579 162.617 75.6357 162.93 72.02 163.316C67.9783 163.747 63.9367 163.785 59.8918 163.38C59.7227 163.364 59.5439 163.357 59.3846 163.303C58.6335 163.035 58.0417 163.096 57.567 163.855C57.2938 164.293 56.7216 164.379 56.1883 164.423C53.6587 164.637 51.5029 163.887 49.8544 161.963C49.3862 161.417 48.9374 161.209 48.1961 161.305C46.863 161.477 45.5168 161.283 44.2 161.066C42.8148 160.836 41.4394 160.597 40.0413 160.431C36.5589 160.019 33.1968 159.042 29.8055 158.212C26.515 157.405 23.2179 156.588 20.077 155.295C14.6599 153.067 9.61032 150.255 5.38335 146.173C3.8844 144.724 2.67483 143.048 1.34821 141.459C0.626378 140.594 0.532082 139.901 0.958031 138.88C1.9725 136.441 2.34318 133.814 2.99348 131.27C3.04226 131.076 3.09428 130.878 3.14956 130.683C6.09868 120.457 9.54529 110.409 13.8113 100.629C16.949 93.4384 20.5517 86.4899 24.3072 79.602C27.3831 73.9621 30.1957 68.1946 32.9237 62.3856C33.4505 61.2589 33.9772 60.129 34.1918 58.881C34.2633 58.4661 34.517 58.0671 34.7348 57.6873C36.0647 55.3413 37.7262 53.2475 39.8137 51.508C41.8069 49.8451 44.0797 48.7184 46.6516 48.1726C48.6285 47.7513 50.5339 47.081 52.4393 46.4235C52.7255 46.3246 53.0181 46.2384 53.0669 45.849C53.2099 44.7255 53.7172 43.7328 54.3772 42.7498C53.4668 42.3604 52.7515 41.7954 52.1044 41.1443C51.9614 41.0007 51.8313 40.8602 51.5972 40.8379C50.9631 40.7836 50.6347 40.324 50.4234 39.8261C49.4837 37.627 49.2268 35.348 49.7015 33.0021C49.7341 32.8457 49.8349 32.7021 49.9064 32.5489C50.1568 32.5712 50.199 32.8361 50.3811 32.9382C50.6347 34.3235 50.7258 35.7279 50.9599 37.1163C51.1192 38.0738 51.4704 38.8015 52.176 39.459C53.5058 40.7038 55.6421 41.0932 57.2841 40.2729C58.6335 39.5963 60.0121 39.0186 61.5241 38.8015C61.7354 38.7696 61.911 38.693 62.0866 38.5813C63.6993 37.5472 65.66 37.0461 66.9704 35.5364C67.1232 35.3608 67.3443 35.2427 67.5199 35.0831C67.6759 34.9427 68.0076 34.9459 67.9426 34.6107C67.6662 34.5214 67.4028 34.5788 67.1329 34.6395C65.8909 34.9235 64.7398 35.4342 63.5855 35.9545C62.506 36.4396 61.459 37.0716 60.191 36.9886C59.9796 36.9758 59.7813 37.0141 59.6642 37.2216C59.4691 37.5631 59.235 37.5216 59.0399 37.2376C58.8871 37.0173 58.744 36.778 58.666 36.5258C58.3701 35.5587 58.3506 34.5533 58.3278 33.5543C58.3668 33.4968 58.4059 33.4426 58.4481 33.3851C58.4969 33.0659 58.4709 32.5999 58.8643 32.5903C59.2415 32.5776 59.261 33.0627 59.3651 33.3596C59.6154 34.0905 59.6317 34.8661 59.7845 35.6161C59.9341 36.3566 60.0316 36.4045 60.7209 36.0885C61.2087 35.8651 61.6834 35.6098 62.1614 35.3704C62.5776 35.3002 62.958 35.1725 63.1758 34.7767C64.3724 34.1735 65.6275 33.7266 66.9379 33.4394C67.5491 33.3053 68.1734 33.2415 68.7652 33.4617C69.2432 33.6372 69.7049 33.6085 70.1796 33.5479C71.2429 33.4074 71.8281 33.7394 72.3484 34.8118C71.8249 34.9171 71.3729 34.499 70.8494 34.6203C70.1764 34.7767 68.2547 36.0917 67.806 36.7205C68.6091 37.0971 69.1034 37.1291 70.8494 36.9344C71.3339 36.8801 71.4119 36.3949 71.7273 36.1651C71.8086 36.1045 71.8704 36.0215 71.9484 35.9545C72.4752 35.5076 72.8101 35.4885 73.2653 35.9928C73.5124 36.2641 73.7043 36.462 74.1107 36.3918C74.6407 36.3024 74.9463 36.6152 75.1154 37.0684C75.252 37.4259 75.3625 37.7961 75.4731 38.1345C75.717 38.0993 75.7657 37.9653 75.834 37.8536C76.9655 36.0438 77.889 34.1192 79.0465 32.3254C79.3001 31.9328 79.4822 31.4828 79.6415 31.0423C80.2658 29.3092 80.3211 27.4867 80.4967 25.6802C80.5812 24.8056 80.2918 24.046 79.7683 23.4395C79.0042 22.5522 78.4125 21.5787 77.8922 20.551C77.6614 20.0945 77.359 19.8552 76.8257 19.7371C73.6848 19.0413 70.5275 18.77 67.328 19.2072C65.2243 19.4945 63.2604 20.1233 61.5533 21.4287C61.0038 21.85 60.4576 22.2809 59.8333 22.8363C59.7487 22.1213 59.3651 21.933 58.8253 21.9681C58.5554 21.716 58.1848 21.767 57.8694 21.6521C57.1963 21.4032 56.9752 20.8638 57.4239 20.3212C57.6613 20.0339 57.7295 19.7466 57.8108 19.4275C58.0807 18.3486 58.5424 17.34 59.0139 16.3346C60.0284 14.1738 61.0396 12.0098 62.2817 9.96066C62.9287 8.89461 63.6213 7.86366 64.5903 7.04338C64.6813 7.06891 64.7723 7.09445 64.8634 7.11679C64.8959 7.44235 64.7171 7.70088 64.5708 7.96261C62.5581 11.598 60.7405 15.3324 58.8383 19.0253C57.9116 20.8223 57.9702 20.5797 59.5406 21.7192C59.5862 21.7511 59.6707 21.7351 59.7455 21.7447C60.1227 21.2755 60.4738 20.7808 60.9681 20.401C64.7268 17.4996 68.9083 16.4432 73.597 17.5858C74.7317 17.8635 75.7787 18.4508 76.8908 18.687C77.9312 18.9104 78.471 19.5073 79.0368 20.2158C79.1896 20.4105 79.2709 20.6946 79.6253 20.6914C79.7066 20.2829 79.4887 19.9541 79.3749 19.6158C78.8026 17.9082 77.863 16.3825 76.9525 14.8377C76.7802 14.5472 76.3543 14.1483 76.7184 13.8706C77.0403 13.628 77.3882 14.0589 77.6484 14.3047C78.4742 15.0835 79.0303 16.0506 79.5863 17.0209C79.8822 17.5411 80.0122 18.1539 80.4804 18.5785C80.4934 18.671 80.5064 18.7636 80.5194 18.8561C80.5552 18.8338 80.6235 18.8178 80.6235 18.7923C80.6333 18.6902 80.5845 18.6136 80.4739 18.5816C80.617 17.1932 80.3211 15.8367 80.1553 14.4738C80.1065 14.0653 79.9829 13.6599 80.191 13.0918C81.2023 14.2919 81.2088 15.7059 81.7323 16.9411C82.337 16.6442 82.6232 15.9644 83.3808 15.8591C83.2962 16.6825 82.9288 17.2666 82.4411 17.7997C82.259 17.9975 81.9176 18.1667 81.9534 18.4221C82.1094 19.6062 81.3453 21.001 82.737 21.9234C82.8735 22.0128 82.9711 22.1692 83.0719 22.3033C84.2587 23.9087 85.4585 25.5078 86.6193 27.1324C87.5265 28.3995 87.4614 28.358 88.7588 27.4324C89.253 27.0813 88.606 26.8994 88.8368 26.6281C89.3766 25.9929 89.227 25.1631 89.0807 24.5024C88.4662 21.7096 88.3166 18.8402 87.585 16.0697C87.4549 15.5782 87.3216 15.1154 87.0713 14.6653C85.5658 11.9459 84.1156 9.19782 82.8866 6.34438C82.2493 4.86339 81.5957 3.38241 80.6528 2.04825C80.4999 1.6397 80.165 1.31733 80.0837 0.870482C80.3179 0.61514 80.5195 0.784304 80.7048 0.915167C81.4071 1.41628 81.9436 2.07697 82.4476 2.75682C84.3627 5.34535 85.6861 8.21476 86.6258 11.2629C86.7754 11.7481 86.9575 12.1917 87.2371 12.629C87.598 13.1939 87.8581 13.8291 88.1085 14.4547C89.2563 17.3177 89.9846 20.2861 90.3878 23.3342C90.4854 24.0683 90.6219 24.7992 90.5927 25.5429C90.5829 25.8365 90.6447 26.044 90.9536 26.1813C91.7404 26.526 92.1144 27.2058 92.3257 27.975C92.6931 29.306 92.7224 30.6402 92.2347 31.9488C91.7925 33.1393 90.8528 33.883 89.8481 33.8894C88.8043 33.8958 87.8809 33.117 87.4452 31.853C87.3704 31.6328 87.2566 31.387 87.2859 31.17C87.4387 30.0657 86.8014 29.389 86.1413 28.5911C84.4831 26.5834 82.9093 24.496 81.8721 22.0703C81.3648 22.8842 81.3616 23.165 81.4884 24.0779C82.0249 27.9495 81.4494 31.5913 79.053 34.8246C78.8677 35.0735 78.8124 35.2714 78.8547 35.5491C78.9782 36.4141 79.1083 37.2823 79.1928 38.1536C79.2318 38.5494 79.4042 38.7217 79.7814 38.8462C80.4804 39.076 81.2023 39.0601 81.9143 39.1399C82.5939 39.2165 83.28 39.2133 83.9563 39.3633C85.9495 39.8069 86.9314 41.0262 86.8697 43.0402C86.8534 43.5445 86.7851 44.0424 86.8306 44.5499C86.8664 44.9266 87.0225 45.0447 87.3769 45.1181C88.8824 45.4404 90.3846 45.782 91.8477 46.2735C94.3189 47.1033 96.6925 48.1407 98.9718 49.3918C100.133 50.027 101.095 50.8537 101.836 51.9453C102.483 52.8996 103.16 53.8284 103.569 54.9136C103.719 55.5616 103.904 56.1999 104.187 56.8063C104.239 57.0776 104.49 57.3298 104.249 57.6649C103.101 55.8233 101.55 54.3231 100.285 52.6124C99.7002 51.824 98.9718 51.2558 98.1264 50.7898C94.7904 48.9514 91.2332 47.6491 87.6175 46.4682C87.0875 46.2958 86.8437 46.5576 86.5478 46.8193C86.3527 46.5671 86.3104 46.3373 86.2519 46.1075C85.9267 44.834 85.8942 43.5222 85.6601 42.2327C85.4487 41.0773 84.8049 40.4996 83.7287 40.3113C82.3273 40.0687 80.9161 39.8963 79.4334 39.6825C79.4334 40.806 79.4464 41.8784 79.4269 42.9508C79.4204 43.3402 79.5277 43.7679 79.2091 44.1095C78.5718 42.8934 78.3995 41.5624 78.2011 40.2315C78.0483 39.1941 78.058 38.1408 77.9312 36.9727C77.3004 37.761 76.9038 38.4887 76.6306 39.2963C75.6617 42.1625 74.2245 44.7861 72.3224 47.164C72.2118 47.3012 71.9907 47.4257 72.1565 47.6587C72.2313 47.6715 72.3061 47.7066 72.3614 47.6874C74.7415 46.8225 77.0338 45.7692 79.2286 44.518C79.6806 44.4542 80.0122 44.0839 80.4739 44.0456L80.5162 44.0935C80.4447 44.5946 80.0902 44.9234 79.7748 45.2745C78.9002 46.2448 77.8109 46.947 76.7022 47.6268C74.1855 49.1748 71.5062 50.0015 68.5018 49.5323C65.3836 49.0439 63.2474 47.3715 62.0703 44.502C61.9793 44.2786 61.911 44.0552 61.9305 43.8158C61.937 43.7233 61.9793 43.5988 62.0476 43.5541C62.1744 43.4743 62.3174 43.5286 62.4117 43.6371C62.6101 43.8701 62.7694 44.135 62.9873 44.3457C63.2636 44.6106 63.3417 45.067 63.9074 45.2362C63.953 43.5445 64.3431 41.9486 64.2001 40.2378C63.7253 40.3464 63.4392 40.5985 63.1303 40.7836C61.3843 41.8305 59.5341 42.6987 57.4824 42.804C56.1363 42.8711 55.4112 43.4775 54.9007 44.5563C54.7577 44.8627 54.6081 45.1659 54.4845 45.4787C54.1171 46.4299 53.7594 47.3874 53.379 48.396C53.2945 48.246 53.2164 48.163 53.2034 48.0705C53.1059 47.4608 52.7807 47.413 52.2605 47.6332C51.7923 47.8311 51.2883 47.9619 50.7973 48.1024C49.3862 48.5109 47.9652 48.8812 46.5378 49.2355C45.0811 49.5961 43.7578 50.3749 42.4572 51.1346C40.0088 52.5613 38.2497 54.6679 36.6077 56.8829C35.6517 58.1724 34.8649 59.5257 34.53 61.1248C34.2959 62.2451 33.8536 63.3144 33.3594 64.3517C31.9353 67.3424 30.5241 70.3363 29.0739 73.3142C25.8452 79.9371 22.5221 86.5154 19.4722 93.2213C17.5018 97.5589 15.5899 101.919 13.782 106.324C11.5775 111.692 9.41523 117.08 7.27573 122.477C6.5539 124.293 5.78004 126.087 5.21427 127.967C4.29084 131.037 3.72508 134.188 2.85692 137.268C2.8114 137.431 2.68784 137.644 2.99998 137.82C3.40968 137.431 3.83237 137.044 4.23556 136.639C7.44806 133.431 10.9597 130.584 14.8583 128.21C17.0043 126.904 19.2608 125.88 21.7873 125.5C22.6001 125.378 23.4065 125.225 24.0666 124.66C24.2584 124.494 24.5673 124.446 24.8307 124.379C25.6923 124.159 26.5572 123.945 27.4221 123.744C28.2253 123.556 29.0186 123.384 29.8478 123.69C30.2997 123.856 30.6737 123.613 31.0671 123.352C32.3254 122.509 33.6488 122.244 35.0925 123.001C37.6449 124.341 40.3437 125.318 43.153 126.001C46.8175 126.895 50.4201 127.964 53.9188 129.371C58.5554 131.239 63.3287 132.713 68.1312 134.108C68.6677 134.264 69.0741 134.315 69.5326 133.891C69.8122 133.632 70.2707 133.553 70.6576 133.419C73.4084 132.474 76.1982 131.641 78.9197 130.607C85.2569 128.197 91.7177 126.173 98.3248 124.609C100.357 124.127 102.386 123.62 104.473 123.444C106.112 123.307 107.748 123.46 109.055 124.533C109.884 125.212 110.785 125.624 111.747 126.046C113.532 126.824 115.346 127.549 117.047 128.506C117.284 128.64 117.531 128.752 117.811 128.797C118.731 128.94 119.603 129.253 120.455 129.604C124.187 131.146 127.494 133.364 130.638 135.838C131.211 136.288 131.757 136.773 132.401 137.319C132.401 136.4 132.459 135.63 132.391 134.874C132.066 131.286 131.344 127.753 130.902 124.185C130.625 121.95 130.281 119.719 130.16 117.469C130.141 117.131 130.095 116.805 129.991 116.48C129.429 114.712 128.876 112.943 128.34 111.169C126.353 104.606 123.924 98.2101 121.027 91.9797C119.089 87.8113 117.041 83.6971 114.852 79.6499C112.033 74.4409 109.451 69.1234 107.37 63.5793C106.506 61.2716 105.381 59.0693 104.564 56.7425C104.412 56.3148 104.256 55.8839 104.106 55.4562C104.002 55.22 103.875 54.9743 104.125 54.7445ZM34.6503 139.796C34.7348 139.907 34.7998 140.124 34.9787 139.955C35.0437 139.891 34.9039 139.741 34.7966 139.671C34.7446 139.301 34.8519 139.046 35.2876 139.145C35.6517 139.228 36.0127 139.349 36.3606 139.492C39.6641 140.859 43.1562 141.57 46.6321 142.314C54.4683 143.986 62.1744 146.119 69.8252 148.461C70.7779 148.752 71.6883 149.103 72.7093 148.816C72.9662 148.742 73.2556 148.781 73.5287 148.774C76.3152 148.733 79.0498 149.243 81.807 149.508C82.5972 149.585 83.3385 149.888 83.9173 150.463C84.5416 151.085 85.1886 151.695 85.7609 152.362C87.2794 154.14 88.7686 155.943 90.2578 157.743C90.5146 158.056 90.8008 158.324 91.1519 158.531C90.4951 159.189 90.2285 159.259 89.4481 158.914C88.8466 158.65 88.3394 158.231 87.9069 157.753C86.9314 156.667 85.9137 155.617 85.0196 154.462C84.3953 153.658 83.7092 152.908 83.0036 152.167C82.4769 151.618 81.8461 151.334 81.1112 151.254C78.9652 151.028 76.8127 150.855 74.6765 150.581C73.584 150.44 72.4849 150.498 71.3989 150.319C70.0528 150.096 68.7034 149.888 67.354 149.674C67.0842 149.633 66.7948 149.54 66.5639 149.741C65.3479 150.807 63.8229 151.401 62.5028 152.304C61.7062 152.85 61.1274 153.533 60.8998 154.545C60.3405 157.034 59.9926 159.582 58.9326 161.943C58.9229 161.966 58.9554 162.004 58.9911 162.093C60.3503 162.263 61.7517 162.208 63.1433 162.31C66.5054 162.559 69.861 162.247 73.2035 161.905C75.3495 161.688 77.4955 161.461 79.648 161.331C81.5957 161.209 83.5466 161.088 85.491 160.906C89.0417 160.571 92.5403 159.926 96.0097 159.119C99.336 158.343 102.734 157.858 105.911 156.508C107.953 155.64 110.046 154.883 112.124 154.085C112.375 153.99 112.674 153.757 112.898 153.887C113.392 154.181 113.747 153.862 114.147 153.725C114.566 153.581 114.976 153.405 115.395 153.259C116.823 152.761 118.182 152.157 119.408 151.254C122.679 148.854 126.005 146.534 129.146 143.967C130.307 143.019 131.376 141.966 132.254 140.747C132.684 140.153 132.671 140.07 132.15 139.55C131.695 139.093 131.233 138.634 130.736 138.222C127.871 135.847 124.763 133.808 121.576 131.883C120.848 131.443 120.09 131.044 119.326 130.658C118.523 130.252 118.484 130.287 118.409 131.13C118.39 131.344 118.494 131.602 118.218 131.759C118.12 131.727 118.013 131.711 117.931 131.663C116.02 130.533 114.121 129.391 112.378 128.012C111.952 127.677 111.552 127.3 111.019 127.124C110.976 127.086 110.908 127.013 110.895 127.019C110.775 127.099 110.856 127.156 110.931 127.211C111.038 127.772 111.146 128.331 111.256 128.893C111.636 130.836 110.892 132.601 109.201 133.693C108.014 134.459 106.743 135.021 105.286 135.085C104.984 135.097 104.665 135.164 104.389 135.283C101.778 136.39 99.0889 137.319 96.5267 138.538C95.5902 138.985 94.6896 139.502 93.5938 140.083C94.1043 140.52 94.5042 140.839 94.8782 141.181C96.208 142.407 97.0697 143.939 97.733 145.573C98.1297 146.549 98.328 147.6 98.1492 148.643C97.5964 151.845 96.4747 154.819 94.2929 157.322C93.7109 157.989 93.1223 158.675 92.2802 159.227C92.2965 158.918 92.3095 158.717 92.3192 158.519C92.6866 156.658 93.3629 154.906 94.2051 153.204C94.7904 152.023 95.2391 150.785 95.5837 149.511C95.8699 148.445 95.9414 147.36 95.4764 146.342C94.7351 144.714 93.9125 143.125 93.1191 141.519C93.0606 141.398 92.963 141.299 92.8947 141.181C92.6541 140.769 92.3582 140.638 91.8738 140.852C90.7617 141.344 89.5457 141.414 88.3589 141.5C86.3592 141.647 84.3985 141.302 82.4866 140.709C82.0281 140.568 81.5729 140.399 81.1047 140.329C79.8821 140.144 78.6726 139.911 77.4923 139.556C74.7382 138.73 71.9972 137.874 69.2464 137.041C64.9902 135.752 60.6982 134.561 56.5655 132.905C51.1387 130.728 45.6924 128.605 40.1356 126.76C37.9571 126.039 35.8533 125.126 33.9252 123.866C33.2033 123.393 32.7384 123.444 32.0686 123.993C31.4378 124.51 31.1256 125.222 30.846 125.95C30.407 127.092 30.2412 128.289 30.1112 129.499C29.8445 131.934 30.1599 134.274 31.3337 136.451C32.0946 137.887 33.1448 139.074 34.6503 139.796ZM48.3327 160.36C48.3392 160.437 48.3717 160.466 48.4367 160.446C48.4074 160.411 48.3814 160.376 48.3522 160.341C48.3229 159.942 48.0173 159.684 47.8092 159.387C46.1704 157.009 44.8113 154.478 43.4749 151.934C42.7921 150.635 42.9449 150.051 44.0894 149.138C45.6664 147.88 47.3442 146.779 49.2073 145.956C49.5097 145.822 49.8674 145.758 50.1275 145.394C49.2333 145.18 48.3717 144.976 47.5133 144.768C43.6667 143.84 39.9763 142.502 36.4354 140.763C35.8241 140.463 35.2908 139.997 34.5137 140.316C34.2991 140.405 33.974 140.278 33.7138 140.211C32.0068 139.767 30.859 138.659 30.0461 137.182C28.4886 134.351 28.3846 131.331 28.8756 128.241C29.0479 127.147 29.3796 126.093 29.7892 125.011C29.0284 124.871 28.3293 124.874 27.6725 124.989C25.2306 125.414 22.818 126.052 20.7143 127.348C18.1293 128.937 15.6842 130.744 13.1707 132.442C10.7971 134.044 8.54383 135.816 6.09868 137.319C4.56397 138.264 3.29912 139.54 1.91073 140.546C2.2879 140.958 2.6098 141.305 2.9317 141.653C4.17053 143.003 5.40286 144.354 6.75874 145.602C10.9857 149.492 15.9768 152.126 21.2865 154.242C24.2454 155.423 27.3539 156.16 30.4493 156.904C34.634 157.909 38.7862 159.064 43.0554 159.728C44.8015 160 46.5216 160.52 48.3327 160.36ZM70.7161 134.807C70.9112 135.091 71.2136 135.091 71.4542 135.171C73.0149 135.678 74.5887 136.154 76.1462 136.674C77.8044 137.23 79.4237 137.868 80.8641 138.883C81.4851 139.32 82.207 139.553 82.9516 139.71C83.6214 139.847 84.2945 140.01 84.974 140.054C86.3657 140.147 87.7508 140.543 89.1587 140.137C90.2708 139.818 91.3177 139.263 92.5176 139.253C92.6704 139.253 92.8297 139.125 92.976 139.036C96.4877 136.872 100.367 135.506 104.223 134.102C104.734 133.916 105.273 133.735 105.81 133.69C107.41 133.549 108.414 132.608 109.24 131.389C109.552 130.926 109.712 130.386 109.669 129.853C109.585 128.778 109.325 127.731 108.824 126.754C108.564 126.25 108.174 125.886 107.653 125.666C106.821 125.315 105.943 125.19 105.042 125.248C103.326 125.353 101.651 125.714 99.9863 126.103C93.1418 127.702 86.434 129.719 79.8756 132.225C77.5118 133.128 75.1154 133.945 72.602 134.373C71.981 134.472 71.3307 134.481 70.7161 134.807ZM64.7984 149.266C61.1436 148.279 57.6255 147.402 54.1561 146.364C52.6052 145.902 51.2428 145.854 49.9487 146.891C49.8446 146.974 49.7081 147.022 49.591 147.086C47.9197 148.018 46.2972 149.017 44.8568 150.277C44.5024 150.587 44.4048 150.858 44.6357 151.318C46.1476 154.306 47.7701 157.232 49.8771 159.859C51.2298 161.544 52.7417 163.035 55.1771 163.112C56.3021 163.147 56.6631 163.067 57.141 162.087C58.0287 160.265 58.8091 158.404 59.2513 156.418C59.4398 155.569 59.5179 154.647 59.9178 153.9C60.5454 152.722 61.2932 151.586 62.4475 150.769C63.1628 150.262 63.953 149.863 64.7984 149.266ZM75.5089 38.5462C75.4081 38.5622 75.33 38.5558 75.2813 38.5877C74.5236 39.0696 73.9806 37.8344 73.21 38.3292C73.1678 38.3547 72.9922 38.1919 72.8849 38.1121C72.667 37.9461 72.6605 37.6142 72.3224 37.4706C71.8574 37.7004 71.7176 38.3036 71.1746 38.5271C70.3975 38.8526 70.2446 38.0323 69.7634 37.8344C69.5131 38.0547 69.6041 38.3132 69.5423 38.5239C69.4708 38.7824 69.2139 38.8686 69.0839 38.7058C68.7359 38.2685 68.0921 38.3292 67.7963 38.0355C67.2402 37.477 66.8793 38.1249 66.4404 38.0706C66.4079 38.0674 66.3298 38.2238 66.3168 38.3132C66.3038 38.4121 66.3688 38.559 66.4761 38.5175C67.1687 38.2526 66.9118 38.8909 67.0289 39.1048C67.7963 40.5315 68.4726 42.0093 69.2822 43.4168C69.8805 44.4542 70.4365 45.5362 71.3079 46.4044C71.3957 46.3469 71.477 46.3214 71.503 46.2703C72.6833 43.918 74.0652 41.6709 75.4146 39.4112C75.5576 39.1686 75.5836 38.9133 75.5089 38.5462ZM65.5885 39.0696C65.3381 39.6857 65.4226 40.0878 65.4291 40.4772C65.4617 42.1497 65.1918 43.7584 64.4049 45.2553C64.1611 45.7213 64.2131 46.0469 64.6033 46.4012C66.2583 47.9077 68.284 48.3864 70.456 48.4535C70.7974 48.463 71.116 48.3386 71.3404 47.9556C68.349 45.7628 67.3898 42.2742 65.5885 39.0696ZM91.4055 29.7752C91.4055 29.6252 91.438 29.3858 91.399 29.156C91.295 28.5591 91.1649 27.9623 90.7097 27.5122C90.3748 27.1803 90.183 27.1994 89.9586 27.6431C89.7212 28.1155 89.3473 28.4793 88.9376 28.7474C88.2678 29.1815 88.2321 29.772 88.3459 30.4167C88.4369 30.9466 88.632 31.4541 88.9311 31.9105C89.4546 32.7052 90.2773 32.734 90.843 31.9552C91.2917 31.336 91.4641 30.6242 91.4055 29.7752Z" fill="#060703"/>
<path d="M80.6625 2.04186C81.6022 3.37603 82.2558 4.85701 82.8963 6.33799C84.1254 9.19463 85.5756 11.9396 87.081 14.659C87.3314 15.109 87.4647 15.5718 87.5948 16.0633C88.3264 18.8338 88.4759 21.7032 89.0905 24.496C89.2368 25.1567 89.3896 25.9866 88.8466 26.6217C88.6157 26.893 89.2628 27.075 88.7686 27.4261C87.4712 28.3517 87.533 28.3932 86.6291 27.126C85.4683 25.5014 84.2685 23.9055 83.0817 22.2969C82.9809 22.1596 82.8833 22.0064 82.7468 21.9171C81.3551 20.9946 82.1192 19.603 81.9631 18.4157C81.9306 18.1603 82.272 17.9912 82.4509 17.7933C82.9386 17.2603 83.306 16.6762 83.3905 15.8527C82.6329 15.9548 82.3468 16.6347 81.742 16.9347C81.2153 15.6995 81.2088 14.2855 80.2008 13.0854C79.9927 13.6535 80.1163 14.0589 80.165 14.4674C80.3341 15.8335 80.6268 17.1868 80.4837 18.5753L80.4902 18.5721C80.022 18.1476 79.8919 17.5347 79.596 17.0145C79.04 16.0442 78.4873 15.0771 77.6581 14.2983C77.3948 14.0525 77.0468 13.6216 76.7282 13.8642C76.364 14.1419 76.79 14.5409 76.9623 14.8313C77.8727 16.3729 78.8124 17.9018 79.3847 19.6094C79.4985 19.9477 79.7163 20.2765 79.635 20.685C79.2806 20.6882 79.1993 20.401 79.0465 20.2095C78.4808 19.5009 77.941 18.9008 76.9005 18.6806C75.7885 18.4444 74.7415 17.8539 73.6067 17.5794C68.9148 16.4368 64.7333 17.4933 60.9778 20.3946C60.4869 20.7744 60.1325 21.2691 59.7553 21.7383C59.6772 21.7287 59.596 21.7479 59.5504 21.7128C57.98 20.5733 57.9214 20.8191 58.8481 19.0189C60.7502 15.326 62.5678 11.5948 64.5805 7.95622C64.7268 7.6945 64.9057 7.43597 64.8732 7.1104L64.8504 7.07849C64.9902 7.06891 65.0455 6.97316 65.078 6.85825C65.1593 6.75292 65.2178 6.60291 65.3251 6.54546C66.7688 5.77624 68.1117 4.84105 69.6041 4.15482C72.4329 2.85577 75.4373 2.00995 78.2922 0.781113C78.6531 1.41947 79.1831 1.15774 79.6643 0.972619C79.8041 1.23115 79.1863 1.39393 79.6578 1.60459C79.9895 1.7546 80.3276 1.89823 80.6625 2.04186Z" fill="#3B9B00"/>
<path d="M58.8318 21.9617C59.3716 21.9266 59.7553 22.1149 59.8398 22.8299C60.4608 22.2713 61.0071 21.8404 61.5599 21.4223C63.2669 20.1169 65.2308 19.4881 67.3346 19.2008C70.534 18.7636 73.6913 19.0349 76.8322 19.7307C77.3655 19.8488 77.6679 20.0882 77.8987 20.5446C78.419 21.5691 79.0107 22.5426 79.7749 23.4331C80.2983 24.0428 80.5877 24.7992 80.5032 25.6738C80.3276 27.4803 80.2723 29.3028 79.648 31.0359C79.4887 31.4796 79.3066 31.9264 79.053 32.319C77.8922 34.1128 76.9688 36.0375 75.8405 37.8472C75.7722 37.9589 75.7235 38.093 75.4796 38.1281C75.3658 37.7897 75.2552 37.4195 75.1219 37.062C74.9529 36.6088 74.644 36.296 74.1172 36.3854C73.7108 36.4524 73.5157 36.2577 73.2718 35.9864C72.8166 35.4821 72.4817 35.5012 71.955 35.9481C71.8769 36.0151 71.8151 36.1013 71.7339 36.1587C71.4152 36.3885 71.3404 36.8737 70.8559 36.928C69.1131 37.1227 68.6189 37.0907 67.8125 36.7141C68.2612 36.0853 70.1829 34.7703 70.8559 34.6139C71.3827 34.4894 71.8314 34.9108 72.3549 34.8054C71.8347 33.733 71.2494 33.401 70.1861 33.5415C69.7114 33.6053 69.2497 33.634 68.7717 33.4553C68.1799 33.2383 67.5557 33.3021 66.9444 33.433C65.6308 33.7202 64.3789 34.1671 63.1824 34.7703C62.376 32.7691 61.5306 30.7838 60.9291 28.7091C60.4348 26.9952 59.9569 25.278 59.4334 23.5704C59.3293 23.2289 59.4399 22.7022 58.8578 22.6192C58.7278 22.4054 58.6367 22.1883 58.8318 21.9617Z" fill="#9C4B00"/>
<path d="M58.8513 22.6192C59.4334 22.7022 59.3228 23.2289 59.4269 23.5704C59.9504 25.2748 60.4283 26.9952 60.9226 28.7091C61.5208 30.7838 62.3695 32.7691 63.1759 34.7703C62.958 35.1661 62.5776 35.2938 62.1614 35.364C62.1451 34.9108 61.8167 34.5884 61.6411 34.2022C60.2105 31.0008 59.2058 27.6814 58.7408 24.2087C58.666 23.6693 58.6693 23.1395 58.8513 22.6192Z" fill="#070704"/>
<path d="M78.2922 0.781109C75.4373 2.00675 72.4297 2.85576 69.6041 4.15482C68.1117 4.84105 66.7688 5.77624 65.3251 6.54546C65.2178 6.60291 65.1593 6.75292 65.078 6.85825C64.9577 6.88698 64.8796 6.9572 64.8504 7.07848L64.8731 7.1104C64.7821 7.08487 64.691 7.05933 64.6 7.03699C66.668 3.97927 69.8187 2.50467 73.21 1.39074C74.8456 0.85452 76.5364 0.615136 78.2597 0.60556C78.2889 0.60556 78.3215 0.627903 78.3442 0.647054C78.4027 0.701314 78.3865 0.749191 78.2922 0.781109Z" fill="#070704"/>
<path d="M58.4449 33.3819C58.4059 33.4394 58.3669 33.4936 58.3246 33.5511C57.9344 33.5255 57.6158 33.334 57.2971 33.1298C55.5315 31.9903 53.6879 32.0797 51.8216 32.8393C51.0607 33.1489 51.0705 33.1776 50.3811 32.9383C50.199 32.8361 50.1568 32.5712 49.9064 32.5489C49.9617 32.3159 50.2348 31.9967 50.3096 32.2201C50.5177 32.8297 50.729 32.5074 50.9957 32.3414C52.15 31.6201 53.4116 31.2339 54.7837 31.3136C56.2436 31.3966 57.5507 31.7796 58.1653 33.2925C58.1945 33.3468 58.3506 33.35 58.4449 33.3819Z" fill="#070704"/>
<path d="M104.2 56.8063C103.917 56.1999 103.732 55.5615 103.582 54.9136C103.797 54.9583 103.807 54.3646 104.129 54.7444C103.878 54.9743 104.005 55.22 104.093 55.4658C104.246 55.8935 104.399 56.3244 104.551 56.7521C104.434 56.7712 104.317 56.7872 104.2 56.8063Z" fill="#9D4C00"/>
<path d="M104.2 56.8063C104.317 56.7872 104.434 56.7712 104.551 56.7521C105.368 59.0757 106.493 61.2812 107.357 63.5889C109.438 69.1298 112.02 74.4473 114.839 79.6594C117.027 83.7066 119.076 87.8208 121.014 91.9893C123.908 98.2196 126.337 104.616 128.326 111.178C128.863 112.953 129.419 114.721 129.978 116.489C130.082 116.815 130.128 117.14 130.147 117.479C130.268 119.732 130.612 121.96 130.889 124.194C131.331 127.766 132.056 131.299 132.378 134.884C132.446 135.64 132.388 136.409 132.388 137.328C131.741 136.783 131.198 136.297 130.625 135.847C127.484 133.374 124.178 131.156 120.442 129.614C119.59 129.263 118.718 128.95 117.798 128.806C117.518 128.762 117.271 128.65 117.034 128.516C115.333 127.558 113.519 126.834 111.734 126.055C110.772 125.634 109.868 125.222 109.042 124.542C107.738 123.473 106.099 123.32 104.46 123.454C102.373 123.626 100.341 124.137 98.3117 124.619C91.7047 126.183 85.2406 128.206 78.9067 130.616C76.1852 131.65 73.3954 132.483 70.6446 133.428C70.2576 133.562 69.7992 133.642 69.5195 133.9C69.0611 134.325 68.6546 134.274 68.1181 134.117C63.3156 132.723 58.5424 131.248 53.9058 129.381C50.4071 127.973 46.8044 126.901 43.14 126.01C40.3307 125.327 37.6319 124.347 35.0795 123.01C33.639 122.254 32.3157 122.519 31.0541 123.361C30.6606 123.623 30.2867 123.869 29.8348 123.7C29.0056 123.393 28.2123 123.565 27.4091 123.754C26.5442 123.958 25.6793 124.169 24.8177 124.389C24.5543 124.456 24.2454 124.504 24.0536 124.67C23.3935 125.235 22.5871 125.388 21.7742 125.509C19.2478 125.889 16.9913 126.91 14.8453 128.219C10.9467 130.594 7.43505 133.438 4.22255 136.649C3.81611 137.054 3.39341 137.44 2.98697 137.83C2.67808 137.654 2.79838 137.44 2.84391 137.277C3.71206 134.197 4.28108 131.047 5.20126 127.977C5.76702 126.097 6.54088 124.303 7.26272 122.487C9.40222 117.093 11.5612 111.705 13.769 106.333C15.5769 101.932 17.4887 97.5685 19.4592 93.2309C22.5058 86.5249 25.8321 79.9467 29.0609 73.3238C30.5111 70.3458 31.9222 67.352 33.3464 64.3613C33.8406 63.3207 34.2828 62.2515 34.517 61.1344C34.8519 59.5353 35.6387 58.182 36.5947 56.8925C38.2367 54.6742 39.9958 52.5677 42.4441 51.1441C43.7448 50.3877 45.0681 49.6089 46.5248 49.245C47.9522 48.8907 49.3731 48.5173 50.7843 48.1119C51.2785 47.9683 51.7793 47.8406 52.2475 47.6427C52.7677 47.4225 53.0929 47.4704 53.1904 48.08C53.2067 48.1726 53.2815 48.2556 53.366 48.4056C53.7464 47.397 54.1041 46.4394 54.4715 45.4883C54.5918 45.1755 54.7414 44.8691 54.8877 44.5659C55.3982 43.4871 56.1233 42.8806 57.4694 42.8136C59.5211 42.7115 61.3712 41.8433 63.1173 40.7932C63.4295 40.6081 63.7123 40.3559 64.1871 40.2474C64.3334 41.9614 63.9399 43.5573 63.8944 45.2457C63.3287 45.0766 63.2506 44.6201 62.9742 44.3552C62.7564 44.1446 62.5971 43.8796 62.3987 43.6466C62.3044 43.5381 62.1614 43.4807 62.0345 43.5637C61.9663 43.6083 61.924 43.7328 61.9175 43.8254C61.898 44.0648 61.9663 44.2882 62.0573 44.5116C63.2344 47.381 65.3706 49.0535 68.4888 49.5419C71.4932 50.011 74.1725 49.1844 76.6891 47.6364C77.7979 46.9565 78.8872 46.2543 79.7618 45.284C80.0772 44.9329 80.4349 44.6042 80.5032 44.1031C80.5812 44.0616 80.6593 44.0201 80.7373 43.9786C80.7178 43.9562 80.6983 43.9179 80.6755 43.9148C80.565 43.8988 80.4999 43.9594 80.4642 44.0552C80.0024 44.0903 79.6708 44.4605 79.2188 44.5244C79.2123 44.3871 79.2091 44.2531 79.2026 44.1158C79.5212 43.7775 79.4139 43.3498 79.4204 42.9572C79.4432 41.8848 79.4269 40.8124 79.4269 39.6888C80.9096 39.9027 82.324 40.075 83.7222 40.3176C84.7984 40.5027 85.4422 41.0836 85.6536 42.2391C85.8909 43.5285 85.9234 44.8404 86.2453 46.1139C86.3039 46.3437 86.3461 46.5735 86.5412 46.8257C86.8404 46.5639 87.081 46.3022 87.611 46.4746C91.2267 47.6555 94.7871 48.9578 98.1199 50.7962C98.9653 51.2622 99.6969 51.8304 100.279 52.6187C101.547 54.3295 103.095 55.8296 104.243 57.6713C104.503 57.3298 104.252 57.0744 104.2 56.8063ZM45.1299 91.0796C45.6404 92.4648 46.346 93.7256 47.1361 94.9385C51.0477 100.968 56.3834 105.468 62.7987 108.74C67.4451 111.108 72.4134 112.65 77.4955 113.843C80.2658 114.494 83.0816 114.877 85.9039 115.181C87.0842 115.305 88.2808 115.561 89.4904 115.369C87.5622 114.893 85.6503 114.389 83.7482 113.847C77.8922 112.171 72.0297 110.518 66.3948 108.191C61.5436 106.189 57.1898 103.419 53.275 99.9751C50.7095 97.7185 48.4725 95.1747 46.4793 92.417C46.1119 91.9063 45.7575 91.3637 45.1299 91.0796ZM69.5488 102.324C69.8577 102.988 70.3389 103.042 70.7421 103.084C71.8671 103.192 72.9987 103.208 74.1237 102.985C77.1346 102.388 79.7943 100.996 82.3923 99.4772C86.06 97.3355 89.3831 94.7278 92.6346 92.0339C92.924 91.7946 93.2816 91.5903 93.4995 91.0158C93.054 91.2935 92.7744 91.469 92.4948 91.6414C88.4726 94.1565 84.509 96.7546 80.3699 99.0846C78.1036 100.361 75.756 101.466 73.171 101.995C72.0297 102.232 70.8754 102.327 69.5488 102.324Z" fill="#3C9D00"/>
<path d="M92.3225 158.531C92.3127 158.729 92.2997 158.927 92.2834 159.24C93.1256 158.688 93.7141 158.002 94.2961 157.334C96.4747 154.832 97.5997 151.857 98.1524 148.656C98.3313 147.609 98.1329 146.559 97.7363 145.586C97.0729 143.951 96.2145 142.419 94.8814 141.194C94.5075 140.849 94.1108 140.53 93.5971 140.096C94.6928 139.515 95.5935 138.998 96.5299 138.551C99.0921 137.332 101.781 136.403 104.392 135.295C104.668 135.177 104.987 135.113 105.29 135.097C106.746 135.034 108.014 134.472 109.204 133.706C110.898 132.614 111.64 130.849 111.259 128.905C111.149 128.344 111.045 127.785 110.934 127.223C110.963 127.195 110.993 127.166 111.022 127.137C111.555 127.313 111.955 127.689 112.381 128.024C114.124 129.4 116.026 130.546 117.935 131.676C118.019 131.724 118.123 131.74 118.221 131.772C118.497 131.615 118.393 131.357 118.413 131.143C118.487 130.3 118.526 130.265 119.33 130.67C120.09 131.057 120.848 131.456 121.58 131.896C124.766 133.821 127.875 135.863 130.739 138.235C131.237 138.647 131.695 139.106 132.154 139.563C132.677 140.086 132.687 140.166 132.258 140.76C131.38 141.979 130.31 143.032 129.149 143.98C126.008 146.543 122.682 148.867 119.411 151.267C118.182 152.167 116.823 152.773 115.398 153.271C114.979 153.418 114.569 153.594 114.15 153.737C113.75 153.875 113.396 154.191 112.901 153.9C112.677 153.766 112.378 154.002 112.127 154.098C110.053 154.893 107.959 155.649 105.914 156.521C102.74 157.871 99.3392 158.359 96.0129 159.131C92.5436 159.939 89.0449 160.584 85.4943 160.919C83.5499 161.104 81.599 161.225 79.6513 161.343C77.4955 161.477 75.3528 161.701 73.2068 161.918C69.8642 162.259 66.5087 162.572 63.1466 162.323C61.7549 162.221 60.3503 162.275 58.9944 162.106C58.9586 162.017 58.9261 161.979 58.9359 161.956C59.9959 159.594 60.3438 157.047 60.903 154.558C61.1306 153.546 61.7094 152.863 62.506 152.317C63.8262 151.414 65.3479 150.82 66.5672 149.754C66.798 149.55 67.0874 149.642 67.3573 149.687C68.7067 149.901 70.0561 150.108 71.4022 150.332C72.4882 150.51 73.5872 150.453 74.6797 150.593C76.8192 150.868 78.9717 151.04 81.1145 151.267C81.8526 151.344 82.4834 151.631 83.0069 152.18C83.7124 152.917 84.4018 153.667 85.0228 154.475C85.917 155.63 86.9347 156.68 87.9102 157.765C88.3394 158.244 88.8466 158.659 89.4514 158.927C90.2317 159.272 90.4951 159.202 91.1552 158.544C91.5421 158.535 91.9323 158.535 92.3225 158.531Z" fill="#3C9C00"/>
<path d="M48.3327 160.36C46.5248 160.52 44.8048 159.996 43.049 159.725C38.783 159.061 34.6308 157.906 30.4428 156.9C27.3474 156.157 24.2422 155.419 21.28 154.238C15.9736 152.122 10.9825 149.489 6.75224 145.598C5.39635 144.35 4.16403 143 2.9252 141.65C2.6033 141.302 2.28465 140.954 1.90422 140.543C3.29262 139.537 4.56071 138.26 6.09218 137.316C8.53732 135.809 10.7906 134.041 13.1642 132.439C15.6777 130.741 18.1228 128.934 20.7078 127.345C22.8115 126.049 25.2241 125.41 27.666 124.986C28.3228 124.871 29.0219 124.868 29.7828 125.008C29.3731 126.09 29.0447 127.143 28.8691 128.238C28.3781 131.331 28.4822 134.347 30.0396 137.178C30.8558 138.659 32.0003 139.767 33.7073 140.207C33.9707 140.274 34.2926 140.402 34.5072 140.313C35.2876 139.994 35.8176 140.46 36.4289 140.76C39.9698 142.499 43.6603 143.836 47.5068 144.765C48.3652 144.973 49.2269 145.177 50.121 145.391C49.8609 145.755 49.5032 145.819 49.2008 145.953C47.341 146.776 45.6632 147.877 44.083 149.135C42.9384 150.048 42.7856 150.632 43.4684 151.931C44.8015 154.475 46.1639 157.009 47.8027 159.384C48.0075 159.684 48.3164 159.939 48.3457 160.338L48.3327 160.36Z" fill="#3C9C00"/>
<path d="M92.3225 158.531C91.9323 158.531 91.5421 158.535 91.1519 158.535C90.804 158.327 90.5179 158.056 90.2578 157.746C88.7653 155.946 87.2794 154.143 85.7609 152.365C85.1887 151.698 84.5449 151.088 83.9173 150.466C83.3385 149.891 82.5972 149.585 81.8071 149.511C79.0498 149.247 76.3153 148.736 73.5287 148.777C73.2556 148.781 72.9662 148.745 72.7093 148.819C71.6883 149.106 70.7779 148.755 69.8252 148.465C62.1744 146.122 54.4683 143.99 46.6321 142.317C43.1563 141.577 39.6641 140.862 36.3606 139.496C36.0159 139.352 35.655 139.231 35.2876 139.148C34.8519 139.049 34.7446 139.304 34.7966 139.674C34.7478 139.716 34.699 139.757 34.6503 139.799C33.1448 139.078 32.0946 137.89 31.3305 136.473C30.1567 134.296 29.8413 131.957 30.1079 129.521C30.2412 128.315 30.4038 127.115 30.8427 125.972C31.1224 125.244 31.4378 124.533 32.0653 124.016C32.7351 123.467 33.2001 123.415 33.9219 123.888C35.8501 125.149 37.9538 126.061 40.1323 126.783C45.6892 128.624 51.1355 130.747 56.5623 132.927C60.695 134.584 64.987 135.774 69.2432 137.064C71.994 137.897 74.7383 138.752 77.4891 139.579C78.6694 139.933 79.8789 140.166 81.1015 140.351C81.573 140.421 82.0282 140.59 82.4834 140.731C84.3953 141.321 86.3559 141.669 88.3556 141.522C89.5392 141.436 90.7585 141.366 91.8705 140.875C92.355 140.661 92.6509 140.792 92.8915 141.203C92.9598 141.318 93.0573 141.42 93.1159 141.542C93.9092 143.147 94.7319 144.737 95.4732 146.364C95.9382 147.383 95.8699 148.468 95.5805 149.534C95.2359 150.804 94.7871 152.046 94.2019 153.227C93.363 154.922 92.6899 156.671 92.3225 158.531Z" fill="#9D4B00"/>
<path d="M70.7161 134.807C71.3307 134.481 71.981 134.472 72.5988 134.366C75.1122 133.942 77.5086 133.122 79.8724 132.218C86.4307 129.713 93.1419 127.696 99.983 126.097C101.648 125.707 103.322 125.347 105.039 125.241C105.94 125.187 106.814 125.311 107.65 125.659C108.174 125.88 108.564 126.243 108.821 126.748C109.321 127.724 109.582 128.771 109.666 129.847C109.708 130.38 109.549 130.919 109.237 131.382C108.411 132.601 107.406 133.543 105.807 133.683C105.27 133.731 104.73 133.91 104.22 134.095C100.363 135.5 96.4844 136.866 92.9728 139.03C92.8297 139.119 92.6671 139.247 92.5143 139.247C91.3145 139.256 90.2675 139.815 89.1555 140.131C87.7443 140.533 86.3624 140.137 84.9708 140.048C84.2912 140.003 83.6182 139.844 82.9484 139.703C82.207 139.55 81.4819 139.314 80.8609 138.876C79.4205 137.861 77.798 137.226 76.1429 136.668C74.5855 136.144 73.015 135.672 71.451 135.164C71.2136 135.091 70.9145 135.091 70.7161 134.807Z" fill="#9C4B00"/>
<path d="M64.7983 149.266C63.9562 149.863 63.1628 150.262 62.441 150.769C61.29 151.586 60.5421 152.722 59.9113 153.9C59.5114 154.65 59.4333 155.569 59.2448 156.418C58.8025 158.404 58.0222 160.265 57.1345 162.087C56.6565 163.064 56.2956 163.147 55.1706 163.112C52.7385 163.032 51.2233 161.544 49.8706 159.859C47.7636 157.232 46.1379 154.305 44.6292 151.318C44.3983 150.858 44.4959 150.587 44.8503 150.277C46.294 149.02 47.9132 148.018 49.5845 147.086C49.7048 147.019 49.8381 146.974 49.9422 146.891C51.2363 145.854 52.5986 145.902 54.1496 146.364C57.6255 147.402 61.1404 148.279 64.7983 149.266Z" fill="#9C4B00"/>
<path d="M50.3844 32.9351C51.077 33.1744 51.0639 33.1457 51.8248 32.8361C53.6912 32.0765 55.5348 31.9871 57.3004 33.1266C57.619 33.3308 57.9344 33.5223 58.3278 33.5479C58.3539 34.5501 58.3734 35.5523 58.666 36.5194C58.744 36.7716 58.8871 37.0141 59.0399 37.2312C59.235 37.5152 59.4691 37.5536 59.6642 37.2152C59.7845 37.0078 59.9796 36.9663 60.191 36.9822C61.4591 37.0652 62.5028 36.4364 63.5856 35.9481C64.7398 35.4278 65.8909 34.9171 67.1329 34.6331C67.4028 34.5724 67.6662 34.515 67.9426 34.6044C68.0076 34.9427 67.6727 34.9363 67.5199 35.0767C67.3443 35.2363 67.1232 35.3544 66.9704 35.53C65.66 37.0397 63.7026 37.5408 62.0866 38.5749C61.911 38.6866 61.7354 38.7664 61.5241 38.7952C60.0121 39.0122 58.6335 39.5899 57.2841 40.2666C55.6421 41.09 53.5058 40.7006 52.176 39.4527C51.4736 38.7952 51.1225 38.0674 50.9599 37.1099C50.729 35.7247 50.638 34.3203 50.3844 32.9351ZM52.2215 35.9928C53.353 35.9098 54.4585 35.4725 55.6356 35.5555C56.1136 35.5906 56.5915 35.5587 57.05 35.3959C57.2874 35.3129 57.7036 35.4789 57.7231 35.115C57.7393 34.7927 57.3979 34.6363 57.089 34.5501C56.8614 34.4863 56.6306 34.3873 56.3997 34.3714C54.826 34.2692 53.353 34.6458 51.9744 35.3704C51.763 35.4821 51.3728 35.5874 51.4931 35.9257C51.6362 36.3215 51.9581 35.9321 52.2215 35.9928Z" fill="#303030"/>
<path d="M75.5089 38.5462C75.5869 38.9133 75.5577 39.1654 75.4113 39.4144C74.062 41.6773 72.6833 43.9211 71.4998 46.2735C71.4737 46.3245 71.3925 46.3501 71.3047 46.4075C70.4333 45.5426 69.8772 44.4606 69.279 43.42C68.4726 42.0157 67.7963 40.5379 67.0257 39.1079C66.9119 38.8941 67.1655 38.2557 66.4729 38.5207C66.3656 38.5622 66.3006 38.4153 66.3136 38.3164C66.3266 38.227 66.4046 38.0706 66.4371 38.0738C66.8794 38.1281 67.237 37.4801 67.793 38.0387C68.0857 38.3323 68.7295 38.2749 69.0806 38.709C69.2107 38.8686 69.4676 38.7856 69.5391 38.527C69.5976 38.3132 69.5098 38.0579 69.7602 37.8376C70.2414 38.0355 70.3942 38.8526 71.1714 38.5302C71.7144 38.3036 71.8542 37.7036 72.3191 37.4738C72.654 37.6142 72.6638 37.9493 72.8817 38.1153C72.989 38.1983 73.1645 38.3611 73.2068 38.3324C73.9774 37.8344 74.5204 39.0728 75.278 38.5909C75.33 38.5558 75.4081 38.5622 75.5089 38.5462Z" fill="#303030"/>
<path d="M79.2124 44.1063C79.2189 44.2435 79.2221 44.3776 79.2286 44.5148C77.0338 45.766 74.7415 46.8193 72.3614 47.6842C72.3061 47.7034 72.2314 47.6683 72.1566 47.6555C71.9907 47.4225 72.2118 47.3012 72.3224 47.1608C74.2245 44.7829 75.6617 42.1593 76.6307 39.2931C76.9038 38.4856 77.3005 37.7578 77.9313 36.9695C78.0613 38.1376 78.0483 39.1909 78.2011 40.2283C78.4027 41.5592 78.5783 42.8902 79.2124 44.1063Z" fill="#9B4B00"/>
<path d="M65.5885 39.0696C67.3898 42.2742 68.3458 45.7628 71.3404 47.9555C71.1161 48.3386 70.7974 48.4662 70.456 48.4535C68.284 48.3864 66.2615 47.9045 64.6033 46.4011C64.2131 46.0469 64.1578 45.7213 64.4049 45.2553C65.1886 43.7584 65.4617 42.1497 65.4292 40.4772C65.4227 40.0878 65.3381 39.6856 65.5885 39.0696Z" fill="#9B4B00"/>
<path d="M91.4055 29.7752C91.4641 30.6242 91.2885 31.336 90.8398 31.9552C90.274 32.734 89.4514 32.7052 88.9279 31.9105C88.6288 31.4541 88.4337 30.9466 88.3426 30.4167C88.2321 29.772 88.2679 29.1847 88.9344 28.7474C89.3473 28.4793 89.718 28.1155 89.9554 27.6431C90.1797 27.1994 90.3748 27.1803 90.7065 27.5122C91.1617 27.9655 91.2917 28.5623 91.3958 29.156C91.4413 29.3858 91.4055 29.6252 91.4055 29.7752Z" fill="#303030"/>
<path d="M34.7966 139.671C34.9039 139.741 35.047 139.891 34.9787 139.955C34.7998 140.128 34.7348 139.907 34.647 139.799C34.699 139.754 34.7478 139.713 34.7966 139.671Z" fill="#9D4B00"/>
<path d="M80.4837 18.5784C80.591 18.6072 80.6398 18.687 80.6333 18.7891C80.63 18.8114 80.565 18.8306 80.5292 18.8529C80.5162 18.7604 80.5032 18.6678 80.4902 18.5753C80.4902 18.5753 80.4837 18.5784 80.4837 18.5784Z" fill="#3B9B00"/>
<path d="M48.3522 160.341C48.3814 160.376 48.4074 160.411 48.4367 160.446C48.3717 160.469 48.3392 160.44 48.3326 160.364C48.3326 160.36 48.3522 160.341 48.3522 160.341Z" fill="#3C9C00"/>
<path d="M110.937 127.223C110.863 127.169 110.781 127.115 110.902 127.032C110.911 127.025 110.983 127.099 111.025 127.137C110.996 127.169 110.967 127.195 110.937 127.223Z" fill="#3C9C00"/>
<path d="M64.8472 7.07848C64.8764 6.9572 64.9545 6.88698 65.0748 6.85825C65.0422 6.97316 64.987 7.06891 64.8472 7.07848Z" fill="#060703"/>
<path d="M45.1299 91.0796C45.7575 91.3637 46.1119 91.9063 46.4793 92.417C48.4692 95.1747 50.7063 97.7185 53.275 99.9751C57.1898 103.416 61.5468 106.186 66.3948 108.191C72.0297 110.518 77.8922 112.171 83.7482 113.847C85.6503 114.389 87.5622 114.893 89.4904 115.369C88.2808 115.564 87.0842 115.308 85.9039 115.181C83.0816 114.881 80.2658 114.494 77.4955 113.843C72.4134 112.65 67.4451 111.108 62.7987 108.74C56.3802 105.468 51.0477 100.968 47.1361 94.9385C46.3492 93.7256 45.6404 92.4649 45.1299 91.0796Z" fill="#020500"/>
<path d="M69.5488 102.324C70.8755 102.324 72.0297 102.232 73.171 101.995C75.756 101.466 78.1036 100.361 80.3699 99.0846C84.5091 96.7546 88.4727 94.1533 92.4948 91.6414C92.7744 91.4658 93.0541 91.2935 93.4995 91.0158C93.2849 91.5903 92.924 91.7946 92.6346 92.034C89.3799 94.7278 86.0601 97.3355 82.3923 99.4772C79.7911 100.993 77.1314 102.388 74.1237 102.985C73.0019 103.208 71.8704 103.192 70.7421 103.084C70.3389 103.042 69.8577 102.988 69.5488 102.324Z" fill="#060703"/>
<path d="M80.4739 44.0456C80.5097 43.9467 80.5747 43.8892 80.6853 43.9052C80.708 43.9084 80.7276 43.9467 80.7471 43.969C80.669 44.0105 80.591 44.052 80.5129 44.0935C80.5162 44.0935 80.4739 44.0456 80.4739 44.0456Z" fill="#060703"/>
<path d="M52.2215 35.9928C51.9614 35.9289 51.6362 36.3215 51.4931 35.9225C51.3728 35.5842 51.7663 35.4789 51.9744 35.3672C53.353 34.6426 54.826 34.2692 56.3997 34.3682C56.6338 34.3841 56.8614 34.4831 57.089 34.5469C57.3979 34.6331 57.7393 34.7927 57.7231 35.1118C57.7036 35.4757 57.2874 35.3097 57.05 35.3927C56.5883 35.5587 56.1136 35.5874 55.6356 35.5523C54.4585 35.4725 53.353 35.9098 52.2215 35.9928Z" fill="#040503"/>
</svg>
